HIERARCHY
ROOT root
{
	OFFSET 0.000000 0.000000 0.000000
	CHANNELS 6 Xposition Yposition Zposition Zrotation Yrotation Xrotation
	JOINT lhip
	{
		OFFSET 0.058581 -0.082280 -0.017664
		CHANNELS 3 Zrotation Yrotation Xrotation
		JOINT lknee
		{
			OFFSET 0.043451 -0.386469 0.008037
			CHANNELS 3 Zrotation Yrotation Xrotation
			JOINT lankle
			{
				OFFSET -0.014790 -0.426874 -0.037428
				CHANNELS 3 Zrotation Yrotation Xrotation
				JOINT ltoe
				{
					OFFSET 0.041054 -0.060286 0.122042
					CHANNELS 3 Zrotation Yrotation Xrotation
					End Site
					{
						OFFSET 0.000000 0.000000 0.000000
					}
				}
			}
		}
	}
	JOINT rhip
	{
		OFFSET -0.060310 -0.090513 -0.013543
		CHANNELS 3 Zrotation Yrotation Xrotation
		JOINT rknee
		{
			OFFSET -0.043257 -0.383688 -0.004843
			CHANNELS 3 Zrotation Yrotation Xrotation
			JOINT rankle
			{
				OFFSET 0.019056 -0.420046 -0.034562
				CHANNELS 3 Zrotation Yrotation Xrotation
				JOINT rtoe
				{
					OFFSET -0.034840 -0.062106 0.130323
					CHANNELS 3 Zrotation Yrotation Xrotation
					End Site
					{
						OFFSET 0.000000 0.000000 0.000000
					}
				}
			}
		}
	}
	JOINT lowerback
	{
		OFFSET 0.004439 0.124404 -0.038385
		CHANNELS 3 Zrotation Yrotation Xrotation
		JOINT upperback
		{
			OFFSET 0.004488 0.137956 0.026820
			CHANNELS 3 Zrotation Yrotation Xrotation
			JOINT chest
			{
				OFFSET -0.002265 0.056032 0.002855
				CHANNELS 3 Zrotation Yrotation Xrotation
				JOINT lowerneck
				{
					OFFSET -0.013390 0.211636 -0.033468
					CHANNELS 3 Zrotation Yrotation Xrotation
					JOINT upperneck
					{
						OFFSET 0.010113 0.088937 0.050410
						CHANNELS 3 Zrotation Yrotation Xrotation
						End Site
						{
							OFFSET 0.000000 0.000000 0.000000
						}
					}
				}
				JOINT lclavicle
				{
					OFFSET 0.071702 0.114000 -0.018898
					CHANNELS 3 Zrotation Yrotation Xrotation
					JOINT lshoulder
					{
						OFFSET 0.122921 0.045205 -0.019046
						CHANNELS 3 Zrotation Yrotation Xrotation
						JOINT lelbow
						{
							OFFSET 0.255332 -0.015649 -0.022946
							CHANNELS 3 Zrotation Yrotation Xrotation
							JOINT lwrist
							{
								OFFSET 0.265709 0.012698 -0.007375
								CHANNELS 3 Zrotation Yrotation Xrotation
								End Site
								{
									OFFSET 0.000000 0.000000 0.000000
								}
							}
						}
					}
				}
				JOINT rclavicle
				{
					OFFSET -0.082954 0.112472 -0.023707
					CHANNELS 3 Zrotation Yrotation Xrotation
					JOINT rshoulder
					{
						OFFSET -0.113228 0.046853 -0.008472
						CHANNELS 3 Zrotation Yrotation Xrotation
						JOINT relbow
						{
							OFFSET -0.260127 -0.014369 -0.031269
							CHANNELS 3 Zrotation Yrotation Xrotation
							JOINT rwrist
							{
								OFFSET -0.269108 0.006794 -0.006027
								CHANNELS 3 Zrotation Yrotation Xrotation
								End Site
								{
									OFFSET 0.000000 0.000000 0.000000
								}
							}
						}
					}
				}
			}
		}
	}
}
MOTION
Frames: 16
Frame Time: 0.033333
-1.428076 0.495391 0.823135 -26.243556 3.772090 95.847706 20.684057 12.580456 -46.168708 -0.187263 18.059018 69.147319 5.793605 8.078792 -35.561497 0.000000 -0.000000 0.000000 -4.581902 1.907434 -55.401655 -5.133090 -14.269001 78.154899 0.474384 -6.866989 -29.425111 0.000000 -0.000000 0.000000 -5.038459 -2.687855 42.053158 3.726670 0.559206 -9.991979 1.434186 -5.665076 10.088044 5.971960 -5.123868 25.804296 5.852119 7.354414 36.037742 -9.331519 15.143871 5.652645 -74.975248 -4.862556 1.785850 -174.846526 -58.931653 -137.280810 -1.257534 -4.793649 -31.034400 2.719857 -9.633722 -2.896994 80.844322 8.069924 16.408395 174.306371 41.004184 -145.029478 39.147623 35.974560 -43.943983 
-1.426509 0.497330 0.820862 -26.027286 4.042793 95.961492 20.918074 12.591652 -46.809659 -0.137242 18.020253 69.558055 5.829639 8.042001 -35.517198 0.000000 -0.000000 0.000000 -4.549959 1.890351 -55.856368 -5.177019 -14.479995 78.419611 0.464261 -6.874856 -29.352212 0.000000 -0.000000 0.000000 -5.057307 -2.636979 42.307139 3.660184 0.579879 -9.936414 1.399256 -5.642728 10.070178 5.808018 -4.965702 26.054237 5.858384 7.382976 36.052063 -9.281152 15.095234 5.665354 -74.966961 -4.934813 1.712161 -174.782020 -58.898024 -137.303937 -0.930751 -4.630294 -31.106811 2.659637 -9.482483 -2.740186 80.993249 8.207613 16.452585 174.342865 41.128798 -144.991832 37.976254 35.354268 -44.377679 
-1.425246 0.498956 0.819067 -25.796591 4.297062 96.049752 21.122348 12.583039 -47.344937 -0.137155 17.947669 69.861421 5.848787 8.046694 -35.458645 0.000000 -0.000000 0.000000 -4.515043 1.858747 -56.203292 -5.233929 -14.699237 78.644598 0.462509 -6.880147 -29.314629 0.000000 -0.000000 0.000000 -5.100595 -2.588470 42.537235 3.608805 0.605288 -10.014364 1.382190 -5.637380 10.111541 5.711499 -4.791706 26.260392 5.826086 7.408650 36.100371 -9.268097 15.123417 5.648384 -74.922809 -4.979985 1.694422 -174.629144 -58.905212 -137.400699 -0.674221 -4.498114 -31.227255 2.660385 -9.430359 -2.642937 81.052163 8.329922 16.526205 174.267055 41.343022 -144.979404 36.870938 34.762986 -44.678012 
-1.424272 0.500255 0.817755 -25.549635 4.513343 96.118320 21.305594 12.513405 -47.774907 -0.110550 17.901351 70.088716 5.862974 8.017804 -35.400724 0.000000 -0.000000 0.000000 -4.467715 1.780470 -56.439446 -5.347709 -14.905161 78.824285 0.475660 -6.837731 -29.288245 0.000000 -0.000000 0.000000 -5.169821 -2.495765 42.520948 3.610738 0.569949 -9.915513 1.386227 -5.636298 10.134162 5.598257 -4.638667 26.558491 5.796853 7.445461 35.986534 -9.270339 15.079827 5.664135 -75.016708 -5.013330 1.783192 -174.677099 -58.950016 -137.497438 -0.332881 -4.254990 -31.071052 2.680031 -9.388732 -2.563314 81.076206 8.399472 16.580923 174.259692 41.471902 -144.991098 35.848024 34.109676 -44.938293 
-1.423656 0.501084 0.817142 -25.376381 4.724348 96.117436 21.473691 12.469349 -48.005950 -0.084016 17.820531 70.223098 5.872698 7.993850 -35.353820 0.000000 -0.000000 0.000000 -4.343912 1.753782 -56.504613 -5.441686 -15.041745 78.882837 0.456675 -6.837640 -29.250079 0.000000 -0.000000 0.000000 -5.263789 -2.381782 42.419363 3.585140 0.540307 -9.800133 1.386298 -5.632851 10.086765 5.452906 -4.548086 26.915241 5.793060 7.494291 35.872054 -9.295225 15.025025 5.710658 -75.083749 -4.977975 1.847217 -174.740408 -58.973207 -137.602620 0.076884 -4.036214 -30.783498 2.658784 -9.351905 -2.464704 81.096414 8.378186 16.590387 174.293026 41.512170 -145.016103 34.822315 33.458607 -45.211346 
-1.423333 0.501493 0.817268 -25.229921 4.930814 96.005878 21.636941 12.376074 -48.011482 -0.074589 17.701384 70.246756 5.867301 8.006756 -35.306912 0.000000 -0.000000 0.000000 -4.179729 1.770449 -56.336917 -5.477660 -15.135930 78.810344 0.427033 -6.889387 -29.213947 0.000000 -0.000000 0.000000 -5.385042 -2.260974 42.272543 3.559699 0.512624 -9.715369 1.394785 -5.636174 10.082974 5.355204 -4.458131 27.176591 5.774737 7.534956 35.812878 -9.308293 14.986626 5.761718 -75.168487 -4.957425 1.899254 -174.834194 -58.976989 -137.625166 0.306620 -3.869821 -30.641097 2.618494 -9.334411 -2.412405 81.126974 8.351836 16.621741 174.445625 41.478664 -144.922850 33.820292 32.824947 -45.570200 
-1.423283 0.501496 0.818125 -25.067327 5.128258 95.826527 21.771867 12.226942 -47.855076 -0.084276 17.539305 70.153994 5.840461 8.046153 -35.261862 0.000000 -0.000000 0.000000 -3.969244 1.803010 -55.993216 -5.536484 -15.190456 78.645159 0.439167 -6.931949 -29.177220 0.000000 -0.000000 0.000000 -5.494374 -2.161968 42.098025 3.540401 0.453824 -9.687510 1.396187 -5.633500 10.044517 5.244735 -4.388947 27.413751 5.757981 7.562302 35.669084 -9.311721 14.984627 5.782705 -75.194057 -4.899683 1.933175 -174.847813 -58.967401 -137.746174 0.447436 -3.694759 -30.543548 2.570394 -9.354917 -2.391135 81.165730 8.317900 16.623294 174.675055 41.454745 -144.798829 32.986973 32.121597 -45.883323 
-1.423417 0.501150 0.819533 -24.953239 5.288662 95.565779 21.845002 12.092172 -47.513060 -0.131464 17.339481 69.941031 5.773357 8.114132 -35.206073 0.000000 -0.000000 0.000000 -3.725404 1.846875 -55.489103 -5.590759 -15.173833 78.394009 0.439380 -6.972201 -29.143568 0.000000 -0.000000 0.000000 -5.630674 -2.055970 41.871579 3.498554 0.368049 -9.596510 1.390405 -5.623030 9.957467 5.169601 -4.293172 27.545345 5.751434 7.575466 35.414915 -9.288499 14.938761 5.757587 -75.176069 -4.809499 1.884057 -174.876507 -58.908466 -137.738884 0.538582 -3.511682 -30.583014 2.460934 -9.343665 -2.425828 81.350605 8.322695 16.601408 174.883781 41.484268 -144.614702 32.680921 31.051380 -46.337927 
-1.423752 0.500397 0.821461 -24.885932 5.459592 95.260789 21.940108 12.026926 -47.006556 -0.114135 17.189129 69.673200 5.740801 8.049924 -35.193759 0.000000 -0.000000 0.000000 -3.451871 1.908010 -54.838664 -5.646550 -15.169262 78.033622 0.425967 -6.970770 -29.131174 0.000000 -0.000000 0.000000 -5.802475 -1.925311 41.523397 3.485530 0.300400 -9.491390 1.415395 -5.635915 9.874782 5.139257 -4.253059 27.539209 5.669234 7.634533 35.205634 -9.317215 15.006977 5.808793 -75.189459 -4.859502 1.874235 -174.997586 -58.918390 -137.721503 0.795675 -3.529489 -30.554643 2.552299 -9.356599 -2.427174 81.239854 8.258930 16.682734 175.088762 41.516867 -144.578232 31.033471 31.125504 -46.360348 
-1.424315 0.499313 0.823890 -24.843006 5.612204 94.912353 22.008670 12.007422 -46.343075 -0.145291 17.027451 69.278324 5.714962 7.971399 -35.183655 0.000000 -0.000000 0.000000 -3.127121 1.928206 -54.053218 -5.626622 -15.100356 77.543564 0.409294 -6.982229 -29.095788 0.000000 -0.000000 0.000000 -5.974077 -1.813465 41.146525 3.446613 0.235897 -9.443653 1.433279 -5.659710 9.770311 5.144177 -4.243506 27.471156 5.580614 7.669325 35.071147 -9.346566 15.118676 5.859498 -75.173656 -4.985981 1.815787 -175.015830 -59.006672 -137.729084 1.029422 -3.589422 -30.502058 2.631084 -9.384214 -2.424487 81.149595 8.201845 16.802776 175.069155 41.539913 -144.597993 29.240989 31.473513 -46.185481 
-1.425028 0.497939 0.826897 -24.813737 5.768342 94.513188 22.058515 11.987463 -45.543258 -0.249500 16.816387 68.771059 5.646269 7.947992 -35.161700 0.000000 -0.000000 0.000000 -2.779029 1.970428 -53.138739 -5.560028 -15.011773 76.970309 0.414498 -7.036201 -29.052093 0.000000 -0.000000 0.000000 -6.139111 -1.723096 40.726665 3.414438 0.160149 -9.448122 1.467238 -5.697345 9.708844 5.144518 -4.230785 27.423494 5.523687 7.710189 34.889141 -9.364685 15.143784 5.880391 -75.196377 -5.057195 1.754507 -175.139996 -59.109448 -137.633047 1.278172 -3.499378 -30.434555 2.606908 -9.428892 -2.505373 81.204023 8.169378 16.906367 175.111508 41.502990 -144.620850 28.138359 31.076927 -46.568453 
-1.425877 0.496231 0.830405 -24.821258 5.901078 94.024475 22.076956 11.965663 -44.562998 -0.367591 16.574257 68.175752 5.564245 7.935795 -35.142624 0.000000 -0.000000 0.000000 -2.379559 2.015933 -52.042720 -5.508724 -14.851643 76.305288 0.383359 -7.103548 -29.030575 0.000000 -0.000000 0.000000 -6.311156 -1.628583 40.316886 3.360384 0.045934 -9.456846 1.492392 -5.737282 9.620933 5.152813 -4.250110 27.381058 5.556442 7.748640 34.696011 -9.382214 15.146179 5.890051 -75.177130 -5.057001 1.660211 -175.243121 -59.148393 -137.586699 1.512642 -3.385824 -30.403350 2.565278 -9.396830 -2.538896 81.232491 8.125908 16.985125 175.254785 41.435072 -144.672926 26.869270 30.520637 -47.205713 
-1.426799 0.494205 0.834216 -24.859993 6.028853 93.483682 22.097243 11.921098 -43.466750 -0.495676 16.323537 67.534646 5.467312 7.946648 -35.133247 0.000000 -0.000000 0.000000 -1.964684 2.064599 -50.850546 -5.418711 -14.651556 75.588267 0.347545 -7.197031 -29.007502 0.000000 -0.000000 0.000000 -6.443179 -1.610949 39.879297 3.245607 -0.072104 -9.470653 1.460202 -5.788775 9.530039 5.166647 -4.281400 27.313020 5.595816 7.807566 34.525857 -9.335970 15.202922 5.895841 -75.206357 -4.986237 1.532626 -175.346091 -59.155395 -137.512056 1.699712 -3.290574 -30.529669 2.363264 -9.401765 -2.627275 81.482863 8.068547 17.093027 175.496080 41.397628 -144.695902 25.849703 29.921092 -48.070341 
-1.427758 0.491936 0.838290 -24.957943 6.152268 92.893224 22.097625 11.870033 -42.277395 -0.638652 16.025311 66.864459 5.336115 8.039295 -35.142227 0.000000 -0.000000 0.000000 -1.516908 2.114508 -49.591501 -5.295286 -14.398765 74.838833 0.300144 -7.331525 -28.983529 0.000000 -0.000000 0.000000 -6.569751 -1.592824 39.436776 3.120580 -0.204853 -9.529068 1.436238 -5.872108 9.425783 5.084797 -4.312502 27.323454 5.661403 7.964916 34.296405 -9.213854 15.313024 6.028541 -75.421149 -4.835661 1.215824 -175.291906 -59.144301 -137.417337 1.857266 -3.051831 -30.889638 2.086967 -9.454979 -2.699737 81.711589 8.109239 17.125819 175.643971 41.197105 -144.915322 24.973271 28.744188 -49.538035 
-1.428966 0.489483 0.842539 -25.091201 6.270220 92.311838 22.102224 11.792371 -41.035110 -0.679945 15.771277 66.172317 5.219755 8.113223 -35.178342 0.000000 -0.000000 0.000000 -1.097950 2.231576 -48.343949 -5.207957 -14.179718 74.089671 0.266085 -7.434353 -28.983129 0.000000 -0.000000 0.000000 -6.741481 -1.531075 38.818373 3.011173 -0.301901 -9.512089 1.461054 -6.048468 9.382709 5.115493 -4.368196 27.253211 5.585866 8.157483 34.005255 -8.898325 15.639594 6.347887 -75.900007 -4.671477 0.996615 -174.970649 -59.213070 -137.572863 2.267594 -2.901156 -31.255831 1.789346 -9.746883 -2.931637 81.828145 8.138411 17.310320 175.523889 41.071896 -145.206483 23.478848 28.362268 -50.176320 
-1.430383 0.486511 0.847172 -25.312265 6.309433 91.666920 22.009018 11.739774 -39.608231 -0.741763 15.469382 65.359517 5.102477 8.272007 -35.194304 0.000000 -0.000000 0.000000 -0.674963 2.326129 -46.965484 -5.101545 -13.827522 73.287716 0.260950 -7.564958 -29.022402 0.000000 -0.000000 0.000000 -6.971221 -1.378040 38.208066 2.834978 -0.366622 -9.700403 1.557550 -6.264728 9.458146 5.128551 -4.460804 27.403579 5.598456 8.410553 33.627446 -8.619060 15.735556 6.741753 -76.380958 -4.362083 0.993732 -174.786661 -59.284614 -138.116908 3.118631 -2.485368 -31.190452 1.392764 -10.053569 -3.229792 82.051625 8.034652 17.448275 175.514610 40.893591 -145.648917 22.347934 27.534899 -50.758122 
